<svg width="400" height="317" fill="none" xmlns="http://www.w3.org/2000/svg"><rect x="125.8" y="84.8" width="148.4" height="148.4" rx="18.1" fill="#3E3E3E"/><path d="M161.2 129.8c0-3 2.4-5.5 5.6-5.5h66.4c3 0 5.6 2.6 5.6 5.5 0 3.2-2.6 5.6-5.6 5.6h-66.4a5.5 5.5 0 0 1-5.6-5.6Zm0 27.7c0-2.9 2.4-5.5 5.6-5.5h66.4c3 0 5.6 2.6 5.6 5.5 0 3.2-2.6 5.6-5.6 5.6h-66.4a5.5 5.5 0 0 1-5.6-5.6Zm72 33.3h-66.4a5.5 5.5 0 0 1-5.6-5.6c0-2.9 2.4-5.5 5.6-5.5h66.4c3 0 5.6 2.6 5.6 5.5 0 3.2-2.6 5.6-5.6 5.6Z" fill="#FCFCFC"/></svg>