<svg width="400" height="317" fill="none" xmlns="http://www.w3.org/2000/svg"><rect x="88" y="79.4" width="66.5" height="66.5" rx="9.6" fill="#3E3E3E"/><path d="M103.3 99.4c0-1.3 1-2.5 2.5-2.5h30.1c1.4 0 2.5 1.2 2.5 2.5 0 1.4-1.1 2.5-2.5 2.5h-30.1a2.5 2.5 0 0 1-2.5-2.5Zm0 12.6c0-1.3 1-2.5 2.5-2.5h30.1c1.4 0 2.5 1.2 2.5 2.5 0 1.4-1.1 2.5-2.5 2.5h-30.1a2.5 2.5 0 0 1-2.5-2.5Zm32.6 15h-30.1a2.5 2.5 0 0 1-2.5-2.4c0-1.4 1-2.6 2.5-2.6h30.1c1.4 0 2.5 1.2 2.5 2.6 0 1.4-1.1 2.5-2.5 2.5ZM136 156c2.1 0 4 2 4 4.1v8.1c0 6.7-5.5 12.1-12.1 12.1h-8.1c-3.6 0-7-1.6-9.2-4.5l-7.6-10.3c-.6-.6-.7-1.2-.7-2 0-1.8 1.5-3.4 3.3-3.4 1 0 2 .5 2.7 1.4l4.8 6.3v-27.2c0-1.8 1.4-3.4 3.3-3.4s3.4 1.6 3.4 3.4v12.5c.7-.6 1.6-1 2.7-1 2 0 3.5 1.4 4 3.3a4 4 0 0 1 3.4-2c2 0 3.5 1.4 4 3.4.5-.5 1.2-.7 2-.7Zm-13.5 15v-8.2c0-.6-.7-1.3-1.4-1.3s-1.3.7-1.3 1.3v8.1c0 .8.6 1.4 1.3 1.4.7 0 1.4-.6 1.4-1.4Zm5.4 0v-8.2c0-.6-.7-1.3-1.4-1.3s-1.3.7-1.3 1.3v8.1c0 .8.6 1.4 1.3 1.4.7 0 1.4-.6 1.4-1.4Zm5.4 0v-8.2c0-.6-.7-1.3-1.4-1.3-.8 0-1.3.7-1.3 1.3v8.1c0 .8.5 1.4 1.3 1.4.7 0 1.4-.6 1.4-1.4Z" fill="#FCFCFC"/><path fill-rule="evenodd" clip-rule="evenodd" d="M118.2 180.2a11.1 11.1 0 0 1-7.6-4.4l-7.6-10.3c-.6-.6-.7-1.2-.7-2 0-1.8 1.5-3.4 3.3-3.4a3.5 3.5 0 0 1 2.7 1.4l4.8 6.3v-27.2c0-1.8 1.4-3.4 3.3-3.4s3.4 1.6 3.4 3.4v12.5c.7-.6 1.6-1 2.7-1 1 0 1.8.3 2.5.9.7.6 1.2 1.4 1.4 2.4a4 4 0 0 1 5.4-1.5 4.3 4.3 0 0 1 2 2.9 3.5 3.5 0 0 1 2.1-.7h.7c2 .4 3.4 2 3.4 4v8.1c0 6.7-5.5 12.1-12.1 12.1h-9.7Zm18.1-29.3c4.9.2 8.9 4.3 8.9 9.2v8.1c0 9.6-7.9 17.3-17.3 17.3h-8.1c-5.2 0-10.2-2.4-13.3-6.6l-7.6-10.2a8.5 8.5 0 0 1 9-13.4v-14.7c0-4.6 3.6-8.5 8.5-8.5 4.7 0 8.6 3.8 8.6 8.5v6.6c1 .3 1.8.7 2.6 1.3a9.1 9.1 0 0 1 8.7 2.4Zm-3 12c0-.3-.1-.6-.3-.8-.3-.4-.7-.6-1-.6-.9 0-1.4.7-1.4 1.3v8.1c0 .8.5 1.4 1.3 1.4a1.4 1.4 0 0 0 1.4-1.4v-8Zm-5.7 8.8c.2-.2.3-.5.3-.8v-8c0-.3-.1-.6-.3-.8-.3-.4-.7-.6-1-.6-.5 0-1 .2-1.2.6l-.2.7v8.1c0 .3 0 .6.2.8a1.3 1.3 0 0 0 2.2 0Zm-7.5 0c.2.3.6.6 1 .6.7 0 1.4-.6 1.4-1.4v-8c0-.7-.7-1.4-1.4-1.4-.4 0-.8.2-1 .6-.2.2-.3.5-.3.7v8.1c0 .3 0 .6.3.8Z" fill="#252525"/><rect x="169.6" y="79.4" width="142.4" height="45.4" rx="6.8" fill="#3E3E3E"/><rect x="184.7" y="95.5" width="108.1" height="13" rx="3.1" fill="#848484"/><rect x="169.6" y="136.2" width="142.4" height="45.4" rx="6.8" fill="#3E3E3E"/><rect x="184.7" y="152.3" width="80" height="13" rx="3.1" fill="#848484"/><rect x="169.6" y="193.1" width="142.4" height="45.4" rx="6.8" fill="#3E3E3E"/><rect x="184.7" y="209.1" width="95.6" height="13" rx="3.1" fill="#848484"/></svg>